# xmcd
#
# Track frame offsets:
#	150
#	19555
#	39447
#	58600
#	75377
#	101907
#	120185
#	138785
#	151200
#	176112
#	192277
#	209817
#	225577
#	250047
#
# Disc length: 3546 seconds
#
# Revision: 3
# Processed by: cddbd v1.5.2PL0 Copyright (c) Steve Scherf et al.
# Submitted via: audiograbber 1.83.01
#
DISCID=ad0dd80e
DTITLE=Various Artist - Century 21 - Goldisc - Volume 116
DYEAR=1900
DGENRE=Oldies
TTITLE0=Diana Ross - Missing You
TTITLE1=Kenny Loggins - Forever
TTITLE2=Peabo Bryson - If Ever You're In My Arms
TTITLE3=Kenny Rogers - Eyes That See In The Dark
TTITLE4=DeBarge - All This Love
TTITLE5=Dan Hill - Sometimes When We Touch
TTITLE6=Michael Jackson - Human Nature
TTITLE7=Dolly Parton - 9 To 5
TTITLE8=Toto - Rosanna
TTITLE9=Neil Diamond - America
TTITLE10=Linda Ronstadt - Blue Bayou
TTITLE11=Julian Lennon - Say You're Wrong
TTITLE12=Elton John - Philadelphia Freedom
TTITLE13=Fleetwood Mac - You Make Loving Fun
EXTD=
EXTT0=
EXTT1=
EXTT2=
EXTT3=
EXTT4=
EXTT5=
EXTT6=
EXTT7=
EXTT8=
EXTT9=
EXTT10=
EXTT11=
EXTT12=
EXTT13=
PLAYORDER=
